<mxfile host="app.diagrams.net" agent="Mozilla/5.0 (Windows NT 10.0; Win64; x64) AppleWebKit/537.36 (KHTML, like Gecko) Chrome/132.0.0.0 Safari/537.36 Edg/132.0.0.0" version="26.0.4" pages="2">
  <diagram name="Fluxo email clicado Paliativo" id="s7zd_H9pS11osYgYin6z">
    <mxGraphModel dx="2253" dy="747" grid="1" gridSize="10" guides="1" tooltips="1" connect="1" arrows="1" fold="1" page="1" pageScale="1" pageWidth="827" pageHeight="1169" math="0" shadow="0">
      <root>
        <mxCell id="0" />
        <mxCell id="1" parent="0" />
        <mxCell id="WdTEvjhrzGX_ELUJUdme-3" value="" style="edgeStyle=orthogonalEdgeStyle;rounded=0;orthogonalLoop=1;jettySize=auto;html=1;" edge="1" parent="1" source="WdTEvjhrzGX_ELUJUdme-1" target="WdTEvjhrzGX_ELUJUdme-2">
          <mxGeometry relative="1" as="geometry" />
        </mxCell>
        <mxCell id="WdTEvjhrzGX_ELUJUdme-12" style="edgeStyle=orthogonalEdgeStyle;rounded=0;orthogonalLoop=1;jettySize=auto;html=1;" edge="1" parent="1" source="WdTEvjhrzGX_ELUJUdme-1" target="WdTEvjhrzGX_ELUJUdme-9">
          <mxGeometry relative="1" as="geometry" />
        </mxCell>
        <mxCell id="WdTEvjhrzGX_ELUJUdme-1" value="Data API" style="rounded=0;whiteSpace=wrap;html=1;" vertex="1" parent="1">
          <mxGeometry x="180" y="200" width="120" height="60" as="geometry" />
        </mxCell>
        <mxCell id="WdTEvjhrzGX_ELUJUdme-2" value="DB" style="shape=cylinder3;whiteSpace=wrap;html=1;boundedLbl=1;backgroundOutline=1;size=15;" vertex="1" parent="1">
          <mxGeometry x="210" y="340" width="60" height="80" as="geometry" />
        </mxCell>
        <mxCell id="WdTEvjhrzGX_ELUJUdme-15" value="" style="edgeStyle=orthogonalEdgeStyle;rounded=0;orthogonalLoop=1;jettySize=auto;html=1;" edge="1" parent="1" source="WdTEvjhrzGX_ELUJUdme-4" target="WdTEvjhrzGX_ELUJUdme-14">
          <mxGeometry relative="1" as="geometry" />
        </mxCell>
        <mxCell id="WdTEvjhrzGX_ELUJUdme-4" value="Kafka&lt;div&gt;&lt;br&gt;&lt;/div&gt;&lt;div&gt;email-clicked&lt;/div&gt;" style="ellipse;shape=cloud;whiteSpace=wrap;html=1;fillColor=#d5e8d4;strokeColor=#82b366;" vertex="1" parent="1">
          <mxGeometry x="320" y="90" width="120" height="80" as="geometry" />
        </mxCell>
        <mxCell id="WdTEvjhrzGX_ELUJUdme-20" style="edgeStyle=orthogonalEdgeStyle;rounded=0;orthogonalLoop=1;jettySize=auto;html=1;" edge="1" parent="1" source="WdTEvjhrzGX_ELUJUdme-5" target="WdTEvjhrzGX_ELUJUdme-7">
          <mxGeometry relative="1" as="geometry" />
        </mxCell>
        <mxCell id="WdTEvjhrzGX_ELUJUdme-5" value="Kafka&lt;div&gt;&lt;br&gt;&lt;/div&gt;&lt;div&gt;19-socketlabs-notification-engagement&lt;/div&gt;" style="ellipse;shape=cloud;whiteSpace=wrap;html=1;" vertex="1" parent="1">
          <mxGeometry x="-240" y="190" width="220" height="80" as="geometry" />
        </mxCell>
        <mxCell id="WdTEvjhrzGX_ELUJUdme-21" value="" style="edgeStyle=orthogonalEdgeStyle;rounded=0;orthogonalLoop=1;jettySize=auto;html=1;" edge="1" parent="1" source="WdTEvjhrzGX_ELUJUdme-7" target="WdTEvjhrzGX_ELUJUdme-1">
          <mxGeometry relative="1" as="geometry" />
        </mxCell>
        <mxCell id="WdTEvjhrzGX_ELUJUdme-7" value="Notification Consumer" style="rounded=0;whiteSpace=wrap;html=1;" vertex="1" parent="1">
          <mxGeometry y="200" width="120" height="60" as="geometry" />
        </mxCell>
        <mxCell id="WdTEvjhrzGX_ELUJUdme-11" value="" style="edgeStyle=orthogonalEdgeStyle;rounded=0;orthogonalLoop=1;jettySize=auto;html=1;" edge="1" parent="1" source="WdTEvjhrzGX_ELUJUdme-9" target="WdTEvjhrzGX_ELUJUdme-10">
          <mxGeometry relative="1" as="geometry" />
        </mxCell>
        <mxCell id="WdTEvjhrzGX_ELUJUdme-9" value="DeliveryCenter" style="rounded=0;whiteSpace=wrap;html=1;" vertex="1" parent="1">
          <mxGeometry x="450" y="200" width="120" height="60" as="geometry" />
        </mxCell>
        <mxCell id="WdTEvjhrzGX_ELUJUdme-10" value="MongoDB" style="shape=cylinder3;whiteSpace=wrap;html=1;boundedLbl=1;backgroundOutline=1;size=15;" vertex="1" parent="1">
          <mxGeometry x="480" y="320" width="60" height="80" as="geometry" />
        </mxCell>
        <mxCell id="WdTEvjhrzGX_ELUJUdme-13" style="edgeStyle=orthogonalEdgeStyle;rounded=0;orthogonalLoop=1;jettySize=auto;html=1;" edge="1" parent="1" source="WdTEvjhrzGX_ELUJUdme-1" target="WdTEvjhrzGX_ELUJUdme-4">
          <mxGeometry relative="1" as="geometry">
            <Array as="points">
              <mxPoint x="220" y="120" />
            </Array>
          </mxGeometry>
        </mxCell>
        <mxCell id="WdTEvjhrzGX_ELUJUdme-17" value="" style="edgeStyle=orthogonalEdgeStyle;rounded=0;orthogonalLoop=1;jettySize=auto;html=1;" edge="1" parent="1" source="WdTEvjhrzGX_ELUJUdme-14" target="WdTEvjhrzGX_ELUJUdme-16">
          <mxGeometry relative="1" as="geometry" />
        </mxCell>
        <mxCell id="WdTEvjhrzGX_ELUJUdme-14" value="API Externa" style="ellipse;whiteSpace=wrap;html=1;fillColor=#d5e8d4;strokeColor=#82b366;" vertex="1" parent="1">
          <mxGeometry x="530" y="90" width="120" height="80" as="geometry" />
        </mxCell>
        <mxCell id="WdTEvjhrzGX_ELUJUdme-16" value="External Webhook" style="ellipse;whiteSpace=wrap;html=1;" vertex="1" parent="1">
          <mxGeometry x="707" y="90" width="120" height="80" as="geometry" />
        </mxCell>
        <mxCell id="WdTEvjhrzGX_ELUJUdme-19" style="edgeStyle=orthogonalEdgeStyle;rounded=0;orthogonalLoop=1;jettySize=auto;html=1;" edge="1" parent="1" source="WdTEvjhrzGX_ELUJUdme-18" target="WdTEvjhrzGX_ELUJUdme-5">
          <mxGeometry relative="1" as="geometry" />
        </mxCell>
        <mxCell id="WdTEvjhrzGX_ELUJUdme-18" value="Valid Webhook" style="ellipse;whiteSpace=wrap;html=1;" vertex="1" parent="1">
          <mxGeometry x="-250" y="50" width="120" height="80" as="geometry" />
        </mxCell>
        <mxCell id="WdTEvjhrzGX_ELUJUdme-23" style="edgeStyle=orthogonalEdgeStyle;rounded=0;orthogonalLoop=1;jettySize=auto;html=1;" edge="1" parent="1" source="WdTEvjhrzGX_ELUJUdme-22" target="WdTEvjhrzGX_ELUJUdme-5">
          <mxGeometry relative="1" as="geometry" />
        </mxCell>
        <mxCell id="WdTEvjhrzGX_ELUJUdme-25" value="" style="edgeStyle=orthogonalEdgeStyle;rounded=0;orthogonalLoop=1;jettySize=auto;html=1;" edge="1" parent="1" source="WdTEvjhrzGX_ELUJUdme-22" target="WdTEvjhrzGX_ELUJUdme-24">
          <mxGeometry relative="1" as="geometry" />
        </mxCell>
        <mxCell id="WdTEvjhrzGX_ELUJUdme-22" value="&lt;div&gt;Vivo&lt;/div&gt;Notification Consumer" style="rounded=0;whiteSpace=wrap;html=1;fillColor=#fff2cc;strokeColor=#d6b656;" vertex="1" parent="1">
          <mxGeometry x="-190" y="480" width="120" height="60" as="geometry" />
        </mxCell>
        <mxCell id="WdTEvjhrzGX_ELUJUdme-26" style="edgeStyle=orthogonalEdgeStyle;rounded=0;orthogonalLoop=1;jettySize=auto;html=1;" edge="1" parent="1" source="WdTEvjhrzGX_ELUJUdme-24" target="WdTEvjhrzGX_ELUJUdme-1">
          <mxGeometry relative="1" as="geometry">
            <Array as="points">
              <mxPoint x="170" y="510" />
              <mxPoint x="170" y="230" />
            </Array>
          </mxGeometry>
        </mxCell>
        <mxCell id="WdTEvjhrzGX_ELUJUdme-24" value="&lt;div&gt;Integration&lt;/div&gt;" style="rounded=0;whiteSpace=wrap;html=1;fillColor=#fff2cc;strokeColor=#d6b656;" vertex="1" parent="1">
          <mxGeometry x="30" y="480" width="120" height="60" as="geometry" />
        </mxCell>
        <mxCell id="WdTEvjhrzGX_ELUJUdme-31" style="edgeStyle=orthogonalEdgeStyle;rounded=0;orthogonalLoop=1;jettySize=auto;html=1;entryX=0.842;entryY=1;entryDx=0;entryDy=0;entryPerimeter=0;" edge="1" parent="1" target="WdTEvjhrzGX_ELUJUdme-1">
          <mxGeometry relative="1" as="geometry">
            <mxPoint x="560" y="460" as="sourcePoint" />
          </mxGeometry>
        </mxCell>
      </root>
    </mxGraphModel>
  </diagram>
  <diagram name="Fluxo email clicado Kafka - Ideal" id="YTArfZPRP0K43GxzTLhn">
    <mxGraphModel dx="2253" dy="747" grid="1" gridSize="10" guides="1" tooltips="1" connect="1" arrows="1" fold="1" page="1" pageScale="1" pageWidth="827" pageHeight="1169" math="0" shadow="0">
      <root>
        <mxCell id="Hje7VYfhiTadqM2yfrba-0" />
        <mxCell id="Hje7VYfhiTadqM2yfrba-1" parent="Hje7VYfhiTadqM2yfrba-0" />
        <mxCell id="Hje7VYfhiTadqM2yfrba-2" value="" style="edgeStyle=orthogonalEdgeStyle;rounded=0;orthogonalLoop=1;jettySize=auto;html=1;" edge="1" parent="Hje7VYfhiTadqM2yfrba-1" source="Hje7VYfhiTadqM2yfrba-4" target="Hje7VYfhiTadqM2yfrba-5">
          <mxGeometry relative="1" as="geometry" />
        </mxCell>
        <mxCell id="Hje7VYfhiTadqM2yfrba-3" style="edgeStyle=orthogonalEdgeStyle;rounded=0;orthogonalLoop=1;jettySize=auto;html=1;" edge="1" parent="Hje7VYfhiTadqM2yfrba-1" source="Hje7VYfhiTadqM2yfrba-4" target="Hje7VYfhiTadqM2yfrba-13">
          <mxGeometry relative="1" as="geometry" />
        </mxCell>
        <mxCell id="Hje7VYfhiTadqM2yfrba-4" value="Data API" style="rounded=0;whiteSpace=wrap;html=1;" vertex="1" parent="Hje7VYfhiTadqM2yfrba-1">
          <mxGeometry x="180" y="200" width="120" height="60" as="geometry" />
        </mxCell>
        <mxCell id="Hje7VYfhiTadqM2yfrba-5" value="DB" style="shape=cylinder3;whiteSpace=wrap;html=1;boundedLbl=1;backgroundOutline=1;size=15;" vertex="1" parent="Hje7VYfhiTadqM2yfrba-1">
          <mxGeometry x="210" y="340" width="60" height="80" as="geometry" />
        </mxCell>
        <mxCell id="Hje7VYfhiTadqM2yfrba-6" value="" style="edgeStyle=orthogonalEdgeStyle;rounded=0;orthogonalLoop=1;jettySize=auto;html=1;" edge="1" parent="Hje7VYfhiTadqM2yfrba-1" source="Hje7VYfhiTadqM2yfrba-7" target="Hje7VYfhiTadqM2yfrba-17">
          <mxGeometry relative="1" as="geometry" />
        </mxCell>
        <mxCell id="Hje7VYfhiTadqM2yfrba-7" value="Kafka&lt;div&gt;&lt;br&gt;&lt;/div&gt;&lt;div&gt;email-clicked&lt;/div&gt;" style="ellipse;shape=cloud;whiteSpace=wrap;html=1;fillColor=#d5e8d4;strokeColor=#82b366;" vertex="1" parent="Hje7VYfhiTadqM2yfrba-1">
          <mxGeometry x="320" y="90" width="120" height="80" as="geometry" />
        </mxCell>
        <mxCell id="Hje7VYfhiTadqM2yfrba-8" style="edgeStyle=orthogonalEdgeStyle;rounded=0;orthogonalLoop=1;jettySize=auto;html=1;" edge="1" parent="Hje7VYfhiTadqM2yfrba-1" source="Hje7VYfhiTadqM2yfrba-9" target="Hje7VYfhiTadqM2yfrba-11">
          <mxGeometry relative="1" as="geometry" />
        </mxCell>
        <mxCell id="Hje7VYfhiTadqM2yfrba-9" value="Kafka&lt;div&gt;&lt;br&gt;&lt;/div&gt;&lt;div&gt;19-socketlabs-notification-engagement&lt;/div&gt;" style="ellipse;shape=cloud;whiteSpace=wrap;html=1;" vertex="1" parent="Hje7VYfhiTadqM2yfrba-1">
          <mxGeometry x="-240" y="190" width="220" height="80" as="geometry" />
        </mxCell>
        <mxCell id="Hje7VYfhiTadqM2yfrba-10" value="" style="edgeStyle=orthogonalEdgeStyle;rounded=0;orthogonalLoop=1;jettySize=auto;html=1;" edge="1" parent="Hje7VYfhiTadqM2yfrba-1" source="Hje7VYfhiTadqM2yfrba-11" target="Hje7VYfhiTadqM2yfrba-4">
          <mxGeometry relative="1" as="geometry" />
        </mxCell>
        <mxCell id="Hje7VYfhiTadqM2yfrba-11" value="Notification Consumer" style="rounded=0;whiteSpace=wrap;html=1;" vertex="1" parent="Hje7VYfhiTadqM2yfrba-1">
          <mxGeometry y="200" width="120" height="60" as="geometry" />
        </mxCell>
        <mxCell id="Hje7VYfhiTadqM2yfrba-12" value="" style="edgeStyle=orthogonalEdgeStyle;rounded=0;orthogonalLoop=1;jettySize=auto;html=1;" edge="1" parent="Hje7VYfhiTadqM2yfrba-1" source="Hje7VYfhiTadqM2yfrba-13" target="Hje7VYfhiTadqM2yfrba-14">
          <mxGeometry relative="1" as="geometry" />
        </mxCell>
        <mxCell id="Hje7VYfhiTadqM2yfrba-13" value="DeliveryCenter" style="rounded=0;whiteSpace=wrap;html=1;" vertex="1" parent="Hje7VYfhiTadqM2yfrba-1">
          <mxGeometry x="450" y="200" width="120" height="60" as="geometry" />
        </mxCell>
        <mxCell id="Hje7VYfhiTadqM2yfrba-14" value="MongoDB" style="shape=cylinder3;whiteSpace=wrap;html=1;boundedLbl=1;backgroundOutline=1;size=15;" vertex="1" parent="Hje7VYfhiTadqM2yfrba-1">
          <mxGeometry x="480" y="320" width="60" height="80" as="geometry" />
        </mxCell>
        <mxCell id="Hje7VYfhiTadqM2yfrba-15" style="edgeStyle=orthogonalEdgeStyle;rounded=0;orthogonalLoop=1;jettySize=auto;html=1;" edge="1" parent="Hje7VYfhiTadqM2yfrba-1" source="Hje7VYfhiTadqM2yfrba-4" target="Hje7VYfhiTadqM2yfrba-7">
          <mxGeometry relative="1" as="geometry">
            <Array as="points">
              <mxPoint x="220" y="120" />
            </Array>
          </mxGeometry>
        </mxCell>
        <mxCell id="Hje7VYfhiTadqM2yfrba-16" value="" style="edgeStyle=orthogonalEdgeStyle;rounded=0;orthogonalLoop=1;jettySize=auto;html=1;" edge="1" parent="Hje7VYfhiTadqM2yfrba-1" source="Hje7VYfhiTadqM2yfrba-17" target="Hje7VYfhiTadqM2yfrba-18">
          <mxGeometry relative="1" as="geometry" />
        </mxCell>
        <mxCell id="Hje7VYfhiTadqM2yfrba-17" value="API Externa" style="ellipse;whiteSpace=wrap;html=1;fillColor=#d5e8d4;strokeColor=#82b366;" vertex="1" parent="Hje7VYfhiTadqM2yfrba-1">
          <mxGeometry x="530" y="90" width="120" height="80" as="geometry" />
        </mxCell>
        <mxCell id="Hje7VYfhiTadqM2yfrba-18" value="External Webhook" style="ellipse;whiteSpace=wrap;html=1;" vertex="1" parent="Hje7VYfhiTadqM2yfrba-1">
          <mxGeometry x="707" y="90" width="120" height="80" as="geometry" />
        </mxCell>
        <mxCell id="Hje7VYfhiTadqM2yfrba-19" style="edgeStyle=orthogonalEdgeStyle;rounded=0;orthogonalLoop=1;jettySize=auto;html=1;" edge="1" parent="Hje7VYfhiTadqM2yfrba-1" source="Hje7VYfhiTadqM2yfrba-20" target="Hje7VYfhiTadqM2yfrba-9">
          <mxGeometry relative="1" as="geometry" />
        </mxCell>
        <mxCell id="Hje7VYfhiTadqM2yfrba-20" value="Valid Webhook" style="ellipse;whiteSpace=wrap;html=1;" vertex="1" parent="Hje7VYfhiTadqM2yfrba-1">
          <mxGeometry x="-250" y="50" width="120" height="80" as="geometry" />
        </mxCell>
        <mxCell id="Hje7VYfhiTadqM2yfrba-26" value="" style="edgeStyle=orthogonalEdgeStyle;rounded=0;orthogonalLoop=1;jettySize=auto;html=1;" edge="1" parent="Hje7VYfhiTadqM2yfrba-1" source="Hje7VYfhiTadqM2yfrba-27" target="Hje7VYfhiTadqM2yfrba-29">
          <mxGeometry relative="1" as="geometry" />
        </mxCell>
        <mxCell id="Hje7VYfhiTadqM2yfrba-27" value="&lt;div&gt;Vivo&lt;/div&gt;Notification Consumer" style="rounded=0;whiteSpace=wrap;html=1;fillColor=#d5e8d4;strokeColor=#82b366;" vertex="1" parent="Hje7VYfhiTadqM2yfrba-1">
          <mxGeometry x="326" y="410" width="120" height="60" as="geometry" />
        </mxCell>
        <mxCell id="Hje7VYfhiTadqM2yfrba-28" style="edgeStyle=orthogonalEdgeStyle;rounded=0;orthogonalLoop=1;jettySize=auto;html=1;entryX=0.55;entryY=0.95;entryDx=0;entryDy=0;entryPerimeter=0;" edge="1" parent="Hje7VYfhiTadqM2yfrba-1" source="Hje7VYfhiTadqM2yfrba-27" target="Hje7VYfhiTadqM2yfrba-7">
          <mxGeometry relative="1" as="geometry" />
        </mxCell>
        <mxCell id="Hje7VYfhiTadqM2yfrba-29" value="&lt;div&gt;Integration&lt;/div&gt;" style="rounded=0;whiteSpace=wrap;html=1;fillColor=#d5e8d4;strokeColor=#82b366;" vertex="1" parent="Hje7VYfhiTadqM2yfrba-1">
          <mxGeometry x="510" y="480" width="120" height="60" as="geometry" />
        </mxCell>
        <mxCell id="Hje7VYfhiTadqM2yfrba-30" style="edgeStyle=orthogonalEdgeStyle;rounded=0;orthogonalLoop=1;jettySize=auto;html=1;entryX=0.842;entryY=1;entryDx=0;entryDy=0;entryPerimeter=0;" edge="1" parent="Hje7VYfhiTadqM2yfrba-1" source="Hje7VYfhiTadqM2yfrba-29" target="Hje7VYfhiTadqM2yfrba-4">
          <mxGeometry relative="1" as="geometry" />
        </mxCell>
      </root>
    </mxGraphModel>
  </diagram>
</mxfile>
